<svg width="52" height="52" viewBox="0 0 52 52" fill="none" xmlns="http://www.w3.org/2000/svg">
<circle cx="26" cy="26" r="26" fill="#6DCC0E"/>
<g clip-path="url(#clip0)">
<path d="M31.3939 15.7819C32.5471 14.8503 32.8082 13.8544 32.8241 13.183C32.8629 11.5496 31.5731 10.3542 31.4258 10.2234C31.0611 9.89903 30.5025 9.93173 30.1781 10.2965C29.8537 10.6612 29.8864 11.2198 30.2511 11.5442C30.2594 11.5516 31.0765 12.3161 31.057 13.1411C31.0465 13.5806 30.7934 13.9946 30.2831 14.4068C29.1299 15.3384 28.8688 16.3343 28.8529 17.0057C28.8141 18.6391 30.1039 19.8344 30.2511 19.9653C30.4199 20.1155 30.6306 20.1894 30.8405 20.1894C31.084 20.1894 31.3264 20.0898 31.5006 19.8938C31.825 19.529 31.7941 18.972 31.4293 18.6476C31.1974 18.4367 30.5998 17.7369 30.6202 17.041C30.633 16.6039 30.8861 16.192 31.3939 15.7819Z" fill="white"/>
<path d="M25.7862 15.7819C26.9394 14.8503 27.2005 13.8544 27.2164 13.183C27.2552 11.5496 25.9653 10.3542 25.8181 10.2234C25.4535 9.89903 24.8948 9.93173 24.5703 10.2965C24.246 10.6612 24.2787 11.2198 24.6434 11.5442C24.6517 11.5516 25.4688 12.3161 25.4492 13.1411C25.4388 13.5806 25.1857 13.9946 24.6754 14.4068C23.5222 15.3384 23.2611 16.3343 23.2452 17.0057C23.2064 18.6391 24.4962 19.8344 24.6434 19.9653C24.8122 20.1155 25.0229 20.1894 25.2327 20.1894C25.4763 20.1894 25.7187 20.0898 25.8929 19.8938C26.2173 19.529 26.1864 18.972 25.8216 18.6476C25.5896 18.4367 24.9921 17.7369 25.0124 17.041C25.0253 16.6039 25.2783 16.192 25.7862 15.7819Z" fill="white"/>
<path d="M38.4389 24.4227H37.3929V23.7746C37.3929 23.2865 36.9972 22.8907 36.5091 22.8907H13.952C13.4639 22.8907 13.0681 23.2864 13.0681 23.7746V28.4391C13.0681 32.5608 15.3495 36.185 18.7745 38.2324H13.9525C13.4644 38.2324 13.0687 38.6281 13.0687 39.1162C13.0687 39.6044 13.4643 40 13.9525 40H36.5091C36.9972 40 37.393 39.6044 37.393 39.1162C37.393 38.6281 36.9973 38.2324 36.5091 38.2324H31.6866C33.6342 37.0681 35.212 35.3942 36.2107 33.4084H38.439C40.9163 33.4084 42.9319 31.3929 42.9319 28.9155C42.9319 26.4382 40.9163 24.4227 38.4389 24.4227ZM35.6253 28.4391C35.6253 33.8391 30.9622 38.2324 25.2305 38.2324C19.4989 38.2324 14.8358 33.8391 14.8358 28.4391V24.6584H35.6253V28.4391H35.6253ZM38.4389 31.6408H36.9181C37.2269 30.6237 37.3929 29.5495 37.3929 28.4391V26.1903H38.4389C39.9416 26.1903 41.1642 27.4128 41.1642 28.9155C41.1642 30.4182 39.9416 31.6408 38.4389 31.6408Z" fill="white"/>
<path d="M20.1784 15.7819C21.3317 14.8503 21.5928 13.8545 21.6087 13.183C21.6474 11.5496 20.3576 10.3543 20.2104 10.2235C19.8457 9.89909 19.287 9.93179 18.9626 10.2965C18.6382 10.6612 18.6709 11.2199 19.0357 11.5443C19.0439 11.5517 19.8611 12.3162 19.8415 13.1412C19.8311 13.5807 19.578 13.9947 19.0677 14.4069C17.9144 15.3385 17.6533 16.3343 17.6375 17.0058C17.5987 18.6391 18.8885 19.8344 19.0357 19.9653C19.2041 20.1151 19.4138 20.1888 19.6228 20.1888C19.8664 20.1888 20.1089 20.0886 20.2836 19.8923C20.6079 19.5275 20.5752 18.969 20.2105 18.6445C20.2022 18.6371 19.3851 17.8726 19.4046 17.0477C19.415 16.6082 19.6681 16.1941 20.1784 15.7819Z" fill="white"/>
</g>
<defs>
<clipPath id="clip0">
<rect width="30" height="30" fill="white" transform="translate(13 10)"/>
</clipPath>
</defs>
</svg>
