<svg width="52" height="52" viewBox="0 0 52 52" fill="none" xmlns="http://www.w3.org/2000/svg">
<circle cx="26" cy="26" r="26" fill="#6DCC0E"/>
<g clip-path="url(#clip0)">
<path d="M28.5863 12.528C27.9397 11.4413 27.3692 10.4415 26.8367 9.52867C26.7606 9.39826 26.6465 9.26786 26.5324 9.18092C26.076 8.83317 25.4675 9.00705 25.1632 9.52867C24.6687 10.4415 24.0982 11.3978 23.4136 12.528C20.4088 17.5704 15.9207 25.1774 15.9207 29.5243C15.9207 32.6975 17.0617 35.5664 18.8874 37.6529C20.7131 39.6959 23.2234 41 25.9999 41C28.7765 41 31.2868 39.6959 33.1125 37.6094C34.9382 35.5229 36.0792 32.654 36.0792 29.4808C36.0792 25.1339 31.5911 17.5704 28.5863 12.528ZM31.7432 36.0446C30.2599 37.7398 28.244 38.7396 25.9999 38.7396C23.7559 38.7396 21.74 37.6964 20.2567 36.0446C18.7733 34.3493 17.8985 32.0454 17.8985 29.4808C17.8985 25.8294 22.1964 18.5702 25.0491 13.7451C25.3914 13.18 25.6957 12.6149 25.9999 12.1368C26.3042 12.6149 26.6085 13.18 26.9508 13.7451C29.8035 18.6136 34.1014 25.8294 34.1014 29.4808C34.1014 32.0454 33.1886 34.3493 31.7432 36.0446Z" fill="white"/>
<path d="M31.8954 28.6984C31.3629 28.655 30.9065 29.1331 30.8684 29.7417C30.8304 30.698 30.5641 31.6108 30.1458 32.3933C29.7274 33.1757 29.1188 33.8712 28.3961 34.3059C27.9397 34.6102 27.7496 35.3057 28.0158 35.8273C28.3201 36.4358 28.9286 36.6097 29.3851 36.3054C30.412 35.6534 31.2488 34.6971 31.8193 33.6104C32.4279 32.5237 32.7702 31.2196 32.8082 29.8721C32.8463 29.2635 32.4279 28.7419 31.8954 28.6984Z" fill="white"/>
</g>
<defs>
<clipPath id="clip0">
<rect width="28" height="32" fill="white" transform="translate(12 9)"/>
</clipPath>
</defs>
</svg>
