<svg width="28" height="28" viewBox="0 0 28 28" fill="none" xmlns="http://www.w3.org/2000/svg">
<g clip-path="url(#clip0)">
<path d="M27.9726 8.23208C27.907 6.74433 27.6664 5.72152 27.3218 4.83523C26.9662 3.89447 26.4192 3.0522 25.7026 2.35202C25.0024 1.64095 24.1546 1.08841 23.2248 0.738425C22.3333 0.393784 21.3159 0.153198 19.8281 0.0876025C18.3293 0.0164522 17.8534 0 14.0519 0C10.2504 0 9.77456 0.0164522 8.28126 0.0820473C6.79352 0.147642 5.7707 0.388443 4.88464 0.73287C3.94366 1.08841 3.10139 1.63539 2.40121 2.35202C1.69014 3.0522 1.13782 3.90002 0.787619 4.82989C0.442978 5.72152 0.202392 6.73877 0.136797 8.22652C0.0656465 9.72538 0.0491943 10.2012 0.0491943 14.0027C0.0491943 17.8043 0.0656465 18.2801 0.131242 19.7734C0.196837 21.2611 0.437637 22.284 0.782277 23.1702C1.13782 24.111 1.69014 24.9533 2.40121 25.6534C3.10139 26.3645 3.94921 26.9171 4.87908 27.267C5.7707 27.6117 6.78796 27.8523 8.27592 27.9179C9.76901 27.9837 10.2451 27.9999 14.0466 27.9999C17.8481 27.9999 18.3239 27.9837 19.8172 27.9179C21.305 27.8523 22.3278 27.6117 23.2139 27.267C25.0956 26.5395 26.5833 25.0518 27.3109 23.1702C27.6553 22.2786 27.8961 21.2611 27.9617 19.7734C28.0273 18.2801 28.0437 17.8043 28.0437 14.0027C28.0437 10.2012 28.0382 9.72538 27.9726 8.23208ZM25.4511 19.664C25.3909 21.0315 25.1612 21.7699 24.9697 22.2622C24.4993 23.482 23.5311 24.4501 22.3113 24.9206C21.8191 25.112 21.0753 25.3417 19.7132 25.4018C18.2363 25.4676 17.7934 25.4838 14.0575 25.4838C10.3215 25.4838 9.87306 25.4676 8.40156 25.4018C7.0341 25.3417 6.29568 25.112 5.8034 24.9206C5.19637 24.6962 4.64384 24.3407 4.19536 23.8758C3.73042 23.4217 3.37488 22.8747 3.15054 22.2677C2.95909 21.7754 2.7294 21.0315 2.66936 19.6696C2.60355 18.1927 2.58732 17.7496 2.58732 14.0136C2.58732 10.2777 2.60355 9.82922 2.66936 8.35793C2.7294 6.99047 2.95909 6.25205 3.15054 5.75976C3.37488 5.15253 3.73042 4.6002 4.20091 4.15151C4.65473 3.68657 5.20172 3.33103 5.80895 3.1069C6.30123 2.91546 7.04521 2.68577 8.40711 2.62551C9.88396 2.55992 10.3271 2.54347 14.0628 2.54347C17.8043 2.54347 18.2472 2.55992 19.7187 2.62551C21.0862 2.68577 21.8246 2.91546 22.3169 3.1069C22.9239 3.33103 23.4764 3.68657 23.9249 4.15151C24.3899 4.60554 24.7454 5.15253 24.9697 5.75976C25.1612 6.25205 25.3909 6.99581 25.4511 8.35793C25.5167 9.83478 25.5332 10.2777 25.5332 14.0136C25.5332 17.7496 25.5167 18.1871 25.4511 19.664Z" fill="white"/>
<path d="M14.0519 6.81006C10.0809 6.81006 6.85907 10.0317 6.85907 14.0029C6.85907 17.974 10.0809 21.1957 14.0519 21.1957C18.0231 21.1957 21.2447 17.974 21.2447 14.0029C21.2447 10.0317 18.0231 6.81006 14.0519 6.81006ZM14.0519 18.6687C11.4757 18.6687 9.38608 16.5792 9.38608 14.0029C9.38608 11.4265 11.4757 9.33707 14.0519 9.33707C16.6283 9.33707 18.7177 11.4265 18.7177 14.0029C18.7177 16.5792 16.6283 18.6687 14.0519 18.6687Z" fill="white"/>
<path d="M23.2085 6.52563C23.2085 7.45294 22.4566 8.20483 21.5291 8.20483C20.6018 8.20483 19.8499 7.45294 19.8499 6.52563C19.8499 5.59811 20.6018 4.84644 21.5291 4.84644C22.4566 4.84644 23.2085 5.59811 23.2085 6.52563Z" fill="white"/>
</g>
<defs>
<clipPath id="clip0">
<rect width="28" height="28" fill="white"/>
</clipPath>
</defs>
</svg>
