<svg width="42" height="42" viewBox="0 0 42 42" fill="none" xmlns="http://www.w3.org/2000/svg">
<g clip-path="url(#clip0)">
<path d="M0.481194 19.8387C0.481686 19.8382 0.482098 19.8376 0.482674 19.8371L9.05527 11.3059C9.69749 10.6668 10.7362 10.6691 11.3755 11.3114C12.0147 11.9537 12.0122 12.9924 11.37 13.6316L5.61438 19.3594H40.3594C41.2655 19.3594 42 20.0939 42 21C42 21.9061 41.2655 22.6406 40.3594 22.6406H5.61446L11.3699 28.3683C12.0122 29.0075 12.0146 30.0463 11.3754 30.6885C10.7362 31.3309 9.69732 31.3331 9.05518 30.6941L0.48259 22.1628C0.482098 22.1624 0.481686 22.1618 0.481113 22.1613C-0.161438 21.52 -0.159386 20.4778 0.481194 19.8387Z" fill="black"/>
</g>
<defs>
<clipPath id="clip0">
<rect width="42" height="42" fill="white" transform="matrix(-1 0 0 1 42 0)"/>
</clipPath>
</defs>
</svg>
