<svg width="52" height="52" viewBox="0 0 52 52" fill="none" xmlns="http://www.w3.org/2000/svg">
<circle cx="26" cy="26" r="26" fill="#6DCC0E"/>
<g clip-path="url(#clip0)">
<path d="M38.3891 30.1041H37.7783V14.8326C37.7783 14.4953 37.5047 14.2217 37.1674 14.2217H26.1109V13.6109C26.1109 13.2735 25.8373 13 25.5 13C25.1627 13 24.8891 13.2735 24.8891 13.6109V14.2217H13.8326C13.4953 14.2217 13.2217 14.4953 13.2217 14.8326V30.1041H12.6109C12.2735 30.1041 12 30.3776 12 30.7149C12 31.0522 12.2735 31.3258 12.6109 31.3258H24.8891V34.1365L20.3054 38.9687C20.0732 39.2135 20.0834 39.6001 20.3282 39.8323C20.5729 40.0646 20.9597 40.0543 21.1918 39.8095L24.8891 35.9117V39.3891C24.8891 39.7265 25.1627 40 25.5 40C25.8373 40 26.1109 39.7265 26.1109 39.3891V35.9117L29.8082 39.8095C29.9283 39.9362 30.0897 40 30.2515 40C30.4025 40 30.5536 39.9444 30.6718 39.8323C30.9166 39.6001 30.9268 39.2135 30.6946 38.9687L26.1109 34.1365V31.3258H38.3891C38.7265 31.3258 39 31.0522 39 30.7149C39 30.3776 38.7265 30.1041 38.3891 30.1041ZM14.4434 15.4434H36.5566V30.1041H14.4434V15.4434Z" fill="white"/>
</g>
<defs>
<clipPath id="clip0">
<rect width="27" height="27" fill="white" transform="translate(12 13)"/>
</clipPath>
</defs>
</svg>
