<svg  viewBox="0 0 32 32" fill="none" xmlns="http://www.w3.org/2000/svg">
<path d="M11.0768 14.7692H6.76909C6.25623 14.7692 5.82023 14.5898 5.46122 14.2308C5.10241 13.8718 4.92277 13.4359 4.92277 12.9229V12.3078C4.92277 10.9487 5.40363 9.78858 6.36528 8.82693C7.32687 7.86561 8.48723 7.38475 9.84615 7.38475H11.0768C11.4101 7.38475 11.6985 7.2629 11.9422 7.0194C12.1857 6.77577 12.3075 6.48742 12.3075 6.15407V3.69231C12.3075 3.35902 12.1857 3.0704 11.9422 2.82677C11.6985 2.58348 11.4102 2.46143 11.0768 2.46143H9.84615C8.51269 2.46143 7.24052 2.72129 6.02884 3.24027C4.81729 3.7596 3.76935 4.46159 2.88462 5.34632C1.99996 6.23065 1.29817 7.27866 0.778914 8.49034C0.25966 9.70189 0 10.9744 0 12.3077V25.8459C0 26.8721 0.35881 27.7434 1.07677 28.4616C1.79479 29.1794 2.66679 29.5383 3.69236 29.5383H11.0773C12.1028 29.5383 12.9745 29.1794 13.6926 28.4616C14.4104 27.7434 14.7695 26.8721 14.7695 25.8459V18.4616C14.7695 17.4356 14.4104 16.5643 13.6922 15.846C12.9744 15.1282 12.1023 14.7692 11.0768 14.7692Z" fill="#6DCC0E"/>
<path d="M30.9237 15.846C30.2059 15.1282 29.3341 14.7692 28.3084 14.7692H24.0007C23.4881 14.7692 23.0517 14.5898 22.6933 14.2308C22.3341 13.8718 22.1548 13.4359 22.1548 12.9229V12.3078C22.1548 10.9487 22.6357 9.78858 23.5969 8.82693C24.5581 7.86561 25.7184 7.38475 27.078 7.38475H28.3084C28.6418 7.38475 28.9303 7.2629 29.1738 7.0194C29.4172 6.77577 29.5394 6.48742 29.5394 6.15407V3.69231C29.5394 3.35902 29.4173 3.0704 29.1738 2.82677C28.9304 2.58348 28.6418 2.46143 28.3084 2.46143H27.078C25.7438 2.46143 24.4719 2.72129 23.2599 3.24027C22.0486 3.7596 21.001 4.46159 20.1162 5.34632C19.2315 6.23065 18.5294 7.27866 18.0103 8.49034C17.4912 9.70189 17.2312 10.9744 17.2312 12.3077V25.8459C17.2312 26.8721 17.5903 27.7434 18.3081 28.4616C19.0259 29.1794 19.8977 29.5383 20.9234 29.5383H28.308C29.3337 29.5383 30.2055 29.1794 30.9232 28.4616C31.6415 27.7434 31.9999 26.8721 31.9999 25.8459V18.4616C32 17.4355 31.6415 16.5643 30.9237 15.846Z" fill="#6DCC0E"/>
</svg>
