<svg width="42" height="42" viewBox="0 0 42 42" fill="none" xmlns="http://www.w3.org/2000/svg">
<g clip-path="url(#clip0)">
<path d="M41.5188 19.8387C41.5183 19.8382 41.5179 19.8376 41.5173 19.8371L32.9447 11.3059C32.3025 10.6668 31.2638 10.6691 30.6245 11.3114C29.9853 11.9537 29.9878 12.9924 30.63 13.6316L36.3856 19.3594H1.64062C0.734508 19.3594 0 20.0939 0 21C0 21.9061 0.734508 22.6406 1.64062 22.6406H36.3855L30.6301 28.3683C29.9878 29.0075 29.9854 30.0463 30.6246 30.6885C31.2638 31.3309 32.3027 31.3331 32.9448 30.6941L41.5174 22.1628C41.5179 22.1624 41.5183 22.1618 41.5189 22.1613C42.1614 21.52 42.1594 20.4778 41.5188 19.8387Z" fill="black"/>
</g>
<defs>
<clipPath id="clip0">
<rect width="42" height="42" fill="white"/>
</clipPath>
</defs>
</svg>
