<svg width="52" height="52" viewBox="0 0 52 52" fill="none" xmlns="http://www.w3.org/2000/svg">
<circle cx="26" cy="26" r="26" fill="#6DCC0E"/>
<g clip-path="url(#clip0)">
<path d="M43.5836 28.9425L43.4037 28.3866L39.971 27.5269C39.9921 27.2154 40.0017 26.9029 40.0017 26.5873C40.0017 22.585 38.2827 18.7664 35.2856 16.1104L33.887 17.6884C36.4334 19.9444 37.8932 23.1881 37.8932 26.5873C37.8932 26.7271 37.8913 26.8663 37.8855 27.0048L35.6567 26.4467C35.6251 24.2587 34.8464 22.134 33.4542 20.447L31.8276 21.7896C32.7947 22.9604 33.383 24.404 33.5195 25.9116L31.2478 25.3431C31.0026 24.3071 30.4563 23.3856 29.707 22.6764L33.1608 10.6274L32.7703 10.1938C31.096 8.33322 28.6304 7.26562 26.0065 7.26562C23.3827 7.26562 20.918 8.33322 19.2436 10.1938L18.8528 10.6274L19.8265 14.025C19.0624 14.4023 18.3285 14.8522 17.6328 15.373C15.2817 17.1308 13.509 19.636 12.6411 22.4257L14.6546 23.0519C15.6127 19.9705 17.7163 17.5126 20.4162 16.0822L21.0528 18.3047C20.2233 18.801 19.4645 19.4228 18.808 20.1575L20.3802 21.5624C20.7652 21.1315 21.1956 20.75 21.6601 20.4237L22.3061 22.6773C21.5609 23.3829 21.0163 24.2986 20.7696 25.3283L18.4957 25.8913C18.5737 25.0206 18.8009 24.1813 19.1741 23.387L17.265 22.491C16.6846 23.7278 16.379 25.0492 16.3564 26.4206L8.6053 28.3393L8.42375 28.8947C7.6451 31.2738 7.94887 33.9426 9.25679 36.2176C10.5647 38.4921 12.7183 40.0975 15.1658 40.6218L15.7371 40.744L18.2008 38.2034C20.4955 39.7467 23.2091 40.5817 26.0065 40.5817C26.9722 40.5817 27.9366 40.4834 28.8734 40.2881L28.4433 38.2237C27.6476 38.3896 26.8283 38.4731 26.0065 38.4731C23.7082 38.4731 21.5398 37.8098 19.7012 36.6549L21.2967 35.0094C22.6906 35.7925 24.2973 36.2388 26.0065 36.2388V34.1302C24.8722 34.1302 23.7961 33.8786 22.8304 33.4274L24.4597 31.7462C24.9494 31.8937 25.4688 31.9731 26.0065 31.9731C26.5394 31.9731 27.0538 31.8959 27.5402 31.7503L36.2381 40.7715L36.8094 40.6506C39.2582 40.1334 41.4168 38.5336 42.7305 36.2627C44.0447 33.9918 44.3554 31.3238 43.5836 28.9425ZM29.4675 30.7107C30.4143 29.9153 31.0847 28.8005 31.3102 27.5324L41.7288 30.1408C42.1089 31.8107 41.8194 33.6271 40.9056 35.2069C39.9913 36.7865 38.5617 37.9425 36.9239 38.4451L29.4675 30.7107ZM21.2096 11.199C22.4648 10.0336 24.182 9.37418 26.0065 9.37418C27.8319 9.37418 29.5491 10.0336 30.8034 11.199L27.8446 21.524C27.2711 21.3144 26.6517 21.2004 26.0065 21.2004C25.3614 21.2004 24.742 21.3144 24.1685 21.524L21.2096 11.199ZM15.0576 38.4154C13.4212 37.9087 11.9943 36.7483 11.0849 35.1662C10.1755 33.5842 9.89015 31.7673 10.2752 30.0985L20.7015 27.5178C20.9234 28.787 21.5906 29.9041 22.536 30.7017L15.0576 38.4154ZM22.729 26.5873C22.729 24.7795 24.1996 23.309 26.0065 23.309C27.8143 23.309 29.2846 24.7795 29.2846 26.5873C29.2846 28.3943 27.8143 29.8645 26.0065 29.8645C24.1996 29.8648 22.729 28.3943 22.729 26.5873Z" fill="white"/>
</g>
<defs>
<clipPath id="clip0">
<rect width="36" height="36" fill="white" transform="translate(8 6)"/>
</clipPath>
</defs>
</svg>
